# xmcd
#
# Track frame offsets:
#	150
#	9045
#	18983
#	28358
#	39565
#	49842
#	63618
#	74663
#	85155
#	99411
#
# Disc length: 1510 seconds
#
# Revision: 1
# Processed by: cddbd v1.5.2PL0 Copyright (c) Steve Scherf et al.
# Submitted via: audiograbber 1.83.01
#
DISCID=7f05e40a
DTITLE=Jean Shepard - The Best Of
DYEAR=1975
DGENRE=Country
TTITLE0=Second Fiddle (To An Old Guitar)
TTITLE1=Many Happy Hangovers To You
TTITLE2=Haul Off And Love Me
TTITLE3=Satisfied Mind
TTITLE4=Dear John
TTITLE5=Two Little Boys
TTITLE6=Key's In The Mailbox
TTITLE7=I'm The Other Woman
TTITLE8=We've Got Another Chance
TTITLE9=You Should Trust Me Now
EXTD=
EXTT0=
EXTT1=
EXTT2=
EXTT3=
EXTT4=
EXTT5=
EXTT6=
EXTT7=
EXTT8=
EXTT9=
PLAYORDER=
